<?xml version="1.0" standalone="no"?>
<!DOCTYPE svg PUBLIC "-//W3C//DTD SVG 20010904//EN"
 "http://www.w3.org/TR/2001/REC-SVG-20010904/DTD/svg10.dtd">
<svg version="1.0" xmlns="http://www.w3.org/2000/svg"
 width="100%" height="100%" viewBox="0 0 500.000000 500.000000"
 preserveAspectRatio="xMidYMid meet">

<g transform="translate(0.000000,500.000000) scale(0.100000,-0.100000)"
fill="#000000" stroke="none">
<path d="M2280 4489 c-336 -34 -699 -180 -988 -396 -100 -75 -268 -237 -345
-333 -285 -354 -447 -810 -447 -1260 0 -450 162 -906 447 -1260 77 -96 245
-258 345 -333 665 -499 1559 -542 2256 -109 181 112 379 286 505 442 489 606
584 1441 243 2135 -111 225 -230 390 -408 560 -433 417 -1006 614 -1608 554z
m404 -109 c645 -61 1219 -458 1508 -1043 360 -727 217 -1597 -358 -2172 -618
-618 -1565 -732 -2317 -278 -427 257 -751 709 -861 1204 -193 868 252 1760
1059 2127 309 140 631 194 969 162z"/>
<path d="M2382 4293 c-48 -23 -75 -67 -80 -129 -4 -44 -8 -55 -26 -60 -56 -17
-105 -46 -139 -83 -32 -35 -57 -51 -57 -38 0 2 -13 47 -29 100 -16 53 -26 98
-23 101 3 4 13 6 23 6 10 0 20 4 23 8 9 15 -6 52 -21 52 -18 0 -183 -50 -183
-55 0 -2 4 -15 10 -29 8 -22 13 -24 38 -16 l29 8 28 -92 c16 -50 30 -96 32
-103 3 -6 -9 -14 -26 -18 -35 -8 -34 -5 -21 -40 8 -20 15 -25 30 -20 11 3 20
3 20 0 0 -12 -34 -65 -41 -65 -4 0 -43 -24 -87 -54 -43 -30 -115 -71 -158 -91
-154 -72 -219 -107 -236 -129 -21 -25 -24 -114 -7 -199 11 -54 11 -57 -18 -94
-74 -96 -143 -233 -187 -371 -44 -139 -58 -258 -54 -430 3 -83 7 -154 10 -157
2 -3 23 2 45 11 l40 16 -5 128 c-6 175 13 305 70 460 20 56 98 212 122 245 13
18 14 18 20 -2 6 -20 90 -58 201 -93 22 -7 45 -16 50 -20 9 -6 37 -16 177 -63
l46 -15 7 26 c5 20 8 23 15 12 18 -28 22 17 5 49 -18 36 -13 51 16 51 12 0 23
-10 30 -27 5 -16 12 -35 16 -43 10 -23 10 -33 1 -58 -4 -13 -4 -21 1 -18 5 3
12 18 16 33 3 16 18 37 32 49 18 14 28 34 32 65 5 40 10 46 50 66 29 15 47 19
51 12 4 -6 11 -5 19 4 9 11 22 12 57 6 25 -5 48 -8 52 -8 26 4 42 -4 48 -23 4
-13 15 -34 25 -47 27 -34 24 -40 -21 -34 -25 4 -55 -1 -82 -12 -24 -9 -45 -16
-48 -14 -3 1 -7 -5 -8 -15 -4 -16 -2 -17 29 0 37 19 103 24 118 9 6 -7 -6 -10
-35 -11 -52 -2 -58 -6 -50 -32 4 -11 23 -24 46 -31 44 -13 62 -8 53 14 -3 8 0
15 6 15 6 0 11 -7 11 -15 0 -8 7 -15 15 -15 9 0 12 6 8 17 -5 11 -3 14 6 8 34
-20 28 47 -6 83 -18 18 -16 21 7 15 37 -10 22 31 -30 87 -28 28 -49 57 -47 63
6 19 58 31 79 18 28 -18 43 -13 25 7 -25 27 -3 42 60 42 39 0 53 4 53 14 0 7
7 26 15 42 11 22 15 25 20 12 4 -9 -1 -27 -9 -40 -21 -32 -13 -38 51 -38 57 0
68 -10 28 -28 -26 -12 -32 -27 -15 -37 6 -4 10 -16 8 -28 -4 -32 29 -23 71 20
l34 35 18 -33 c9 -19 15 -37 12 -41 -2 -5 9 -8 26 -8 l29 0 -15 -31 c-10 -20
-31 -37 -60 -50 -42 -18 -46 -18 -76 -2 -18 9 -53 33 -78 55 -25 21 -55 38
-67 38 -11 0 -24 5 -27 11 -4 6 -1 9 7 7 18 -4 82 58 68 67 -5 3 -10 1 -10 -5
0 -6 -5 -8 -12 -3 -35 21 -73 4 -62 -30 5 -16 3 -19 -10 -14 -37 15 -12 -24
47 -71 34 -27 70 -59 81 -71 18 -20 18 -21 -8 -51 -24 -29 -26 -39 -26 -121 0
-50 -4 -99 -10 -109 -13 -24 -4 -47 21 -53 25 -7 25 -43 0 -57 -22 -11 -61
-13 -85 -4 -14 5 -14 8 -1 21 8 8 19 12 24 9 5 -3 11 1 15 9 3 10 -1 15 -13
15 -10 0 -22 -7 -25 -15 -5 -14 -8 -14 -31 1 -21 14 -24 14 -20 1 5 -11 0 -14
-22 -12 -15 1 -36 6 -46 10 -32 13 -67 -5 -99 -50 -18 -25 -36 -45 -40 -45 -5
0 -22 7 -39 15 -33 17 -51 13 -42 -10 4 -11 0 -14 -13 -9 -16 6 -17 5 -6 -7 8
-9 36 -14 75 -15 34 0 102 -4 151 -9 85 -7 90 -7 106 15 l17 23 11 -30 c8 -25
17 -31 53 -37 26 -4 56 -18 76 -37 19 -16 48 -32 64 -36 20 -4 31 -13 35 -29
11 -43 -5 -43 -89 -2 -49 24 -95 40 -114 40 -17 -1 -58 7 -89 18 -32 10 -61
17 -65 14 -4 -2 -10 0 -13 4 -16 26 -116 -39 -116 -75 0 -21 36 -86 56 -104
11 -8 45 -23 77 -33 98 -30 218 -1 164 39 -10 7 -17 16 -17 22 0 5 -20 14 -45
21 -33 9 -43 16 -39 27 9 23 101 20 139 -5 17 -11 41 -20 55 -20 41 0 69 -11
75 -29 7 -22 -20 -76 -47 -95 -22 -16 -57 -84 -51 -102 2 -6 -8 -16 -22 -22
-15 -7 -23 -17 -20 -22 3 -6 -3 -10 -14 -10 -29 0 -27 -31 4 -58 14 -12 28
-22 31 -22 3 0 17 -9 31 -20 31 -24 25 -25 -25 -5 -24 10 -38 12 -40 5 -7 -20
-42 -10 -52 15 -5 14 -16 25 -23 25 -16 0 -37 42 -37 74 0 13 -6 29 -14 35
-12 10 -17 8 -25 -8 -6 -11 -11 -33 -11 -49 0 -30 -19 -76 -32 -80 -5 -1 -7 0
-5 1 1 2 -4 11 -11 20 -8 9 -11 21 -7 27 3 5 -1 10 -10 10 -9 0 -21 -13 -26
-29 -6 -15 -21 -33 -34 -39 -28 -13 -32 -3 -13 28 17 27 2 37 -22 15 -17 -15
-26 -17 -55 -8 -33 11 -35 10 -33 -10 2 -12 -1 -24 -7 -27 -5 -3 -12 9 -13 25
-2 17 -12 38 -23 48 -10 10 -19 24 -19 32 0 10 -10 15 -28 15 -16 0 -37 6 -47
14 -17 12 -18 17 -6 40 8 14 17 25 20 24 19 -2 31 4 29 14 -2 7 7 14 20 16 12
2 22 10 22 19 0 9 -6 13 -15 9 -12 -4 -15 4 -15 46 0 44 -2 49 -15 38 -12 -10
-15 -9 -15 6 0 13 -9 7 -35 -21 -36 -41 -34 -66 4 -45 12 6 27 10 33 8 6 -2
-3 -10 -20 -17 -18 -8 -39 -10 -49 -6 -10 5 -24 7 -30 6 -7 -1 -13 3 -13 9 0
5 -7 10 -15 10 -8 0 -30 14 -48 30 -44 38 -59 39 -51 3 12 -48 33 -81 63 -99
23 -14 33 -29 42 -68 6 -28 16 -59 21 -68 6 -13 5 -16 -6 -12 -15 6 -46 73
-46 99 0 27 -30 4 -31 -24 0 -23 -1 -24 -9 -6 -6 13 -7 4 -3 -26 4 -39 2 -47
-13 -53 -11 -4 -20 -2 -22 4 -3 7 -10 1 -17 -12 -6 -12 -9 -27 -6 -33 12 -21
11 -59 -1 -66 -21 -13 -168 -149 -243 -226 -70 -71 -70 -71 -86 -50 -21 27
-35 17 -19 -12 17 -33 -5 -25 -39 14 -17 20 -31 45 -31 57 0 21 0 21 -15 2 -8
-10 -15 -25 -15 -32 0 -6 51 -63 113 -125 265 -267 569 -397 927 -397 333 0
633 120 888 354 81 75 83 76 136 76 70 0 114 9 120 25 10 26 -14 80 -43 100
l-30 19 26 41 c79 127 144 308 169 469 13 79 21 107 40 126 33 36 59 170 41
219 -13 36 -64 101 -80 101 -5 0 -4 -7 3 -15 6 -8 9 -19 5 -25 -4 -6 -1 -9 7
-8 9 2 14 -10 16 -35 2 -29 7 -37 18 -33 8 3 14 2 14 -2 -1 -14 -27 -42 -40
-42 -7 0 -10 -7 -6 -16 3 -9 2 -12 -5 -9 -5 4 -8 19 -4 34 8 36 -28 70 -71 69
-20 -1 -41 7 -55 21 l-23 21 26 0 c17 0 28 -6 31 -17 4 -17 5 -17 6 0 1 13 10
17 37 17 l36 0 -23 21 c-17 15 -19 19 -6 15 25 -8 21 3 -5 14 l-23 9 23 0 c30
1 28 13 -14 142 l-37 109 17 73 c9 39 19 82 22 94 3 17 -11 40 -52 89 -31 36
-61 76 -68 88 -28 54 -223 276 -242 276 -20 0 -90 66 -125 118 -17 25 -37 75
-46 114 -12 54 -23 78 -49 104 -27 26 -34 41 -34 72 0 22 -3 67 -6 100 l-7 61
-45 16 c-25 8 -50 15 -56 15 -6 0 -33 -32 -61 -70 -27 -38 -57 -69 -65 -70 -8
0 -46 7 -85 16 -38 8 -144 18 -234 21 l-163 6 6 36 c7 47 37 71 90 71 43 0 86
-29 86 -58 0 -7 16 -12 40 -12 22 0 40 5 40 10 0 29 -33 82 -62 100 -42 25
-147 27 -196 3z m641 -242 c-2 -3 -61 17 -71 25 -2 1 12 23 30 49 l33 47 5
-59 c3 -32 4 -60 3 -62z m-374 -65 c8 -10 9 -16 1 -21 -12 -8 -13 -35 0 -55 7
-11 13 -12 32 -3 43 21 68 25 103 13 36 -12 89 -65 80 -81 -4 -5 -6 -35 -6
-67 -1 -70 -7 -82 -45 -86 -25 -3 -30 -8 -35 -40 -3 -20 -2 -36 3 -36 4 0 8
-7 8 -15 0 -8 -9 -15 -19 -15 -37 0 -51 12 -51 42 0 17 -4 27 -10 23 -5 -3
-10 -15 -10 -26 0 -10 -4 -19 -10 -19 -5 0 -10 11 -10 25 0 14 -2 25 -4 25
-16 0 -92 -34 -113 -50 -38 -30 -59 -26 -67 12 -8 40 7 57 34 40 16 -10 27 -9
56 3 20 8 47 15 60 15 17 0 24 6 24 20 0 13 -7 20 -20 20 -10 0 -24 10 -31 21
-9 18 -7 27 10 50 22 30 27 54 12 64 -5 3 -12 19 -16 35 -4 17 -18 44 -32 60
-22 27 -24 58 -3 45 5 -3 11 -1 15 5 9 14 31 12 44 -4z m327 -112 c21 -44 10
-58 -59 -79 -53 -16 -59 -9 -22 25 14 13 25 28 25 35 0 11 28 55 35 55 2 0 12
-16 21 -36z m-125 -249 c11 -19 29 -37 40 -40 10 -4 19 -10 19 -14 0 -12 -30
-36 -30 -25 0 5 -7 0 -15 -10 -12 -16 -17 -17 -30 -6 -9 7 -14 19 -11 27 3 8
-1 30 -9 50 -19 45 -19 53 0 53 9 0 25 -16 36 -35z m-262 -258 c-5 -17 -9 -33
-9 -34 0 -2 -14 -3 -31 -3 -17 0 -45 -10 -62 -22 -17 -12 -28 -17 -24 -11 4 6
0 16 -8 23 -16 13 -20 55 -7 64 5 3 35 8 67 11 32 3 60 7 63 10 13 13 19 -9
11 -38z m348 37 c-3 -3 -12 -4 -19 -1 -8 3 -5 6 6 6 11 1 17 -2 13 -5z m-299
-51 c1 -15 -3 -23 -10 -21 -15 5 -18 45 -3 45 6 0 12 -11 13 -24z m-224 -23
c-14 -34 -14 -43 -3 -57 12 -14 12 -16 -1 -11 -8 2 -20 14 -26 26 -6 12 -13
21 -15 19 -3 -1 4 6 14 16 11 9 15 17 11 17 -8 1 25 30 33 30 1 0 -4 -18 -13
-40z m496 -40 c0 -16 -4 -30 -10 -30 -11 0 -14 43 -3 53 11 12 13 8 13 -23z
m-68 -32 c-7 -7 -12 -8 -12 -2 0 6 3 14 7 17 3 4 9 5 12 2 2 -3 -1 -11 -7 -17z
m-578 -42 c-24 -18 -62 -30 -46 -14 14 14 56 35 61 31 3 -2 -4 -10 -15 -17z
m1396 -446 c0 -3 -22 -15 -50 -28 -27 -13 -50 -27 -50 -32 0 -14 24 -12 38 2
6 6 14 9 17 6 8 -8 -59 -38 -83 -38 -12 0 -24 -5 -28 -12 -5 -8 -2 -9 10 -5
10 4 15 3 11 -3 -3 -6 -15 -10 -26 -10 -11 0 -38 -9 -59 -20 -22 -11 -68 -31
-102 -43 -35 -13 -92 -42 -127 -65 -108 -70 -143 -52 -130 66 2 17 7 32 12 32
5 0 7 13 4 30 -7 32 13 89 38 110 13 11 37 12 128 2 62 -6 125 -9 141 -7 15 2
38 0 49 -4 14 -5 40 1 80 18 47 20 63 33 79 65 l21 41 13 -50 c8 -27 14 -52
14 -55z m-840 35 c0 4 13 -4 30 -18 16 -14 35 -27 41 -29 11 -4 4 -22 -28 -77
-2 -2 -11 3 -21 12 -10 10 -24 17 -30 17 -13 0 -32 32 -32 54 0 9 8 16 17 16
13 0 14 3 5 12 -17 17 -15 33 3 18 8 -7 15 -9 15 -5z m-326 -101 c9 -23 8 -24
-26 -24 -30 0 -31 0 -13 20 22 24 31 25 39 4z m1150 -39 c-4 -8 -17 -15 -30
-15 -30 0 -31 8 -1 20 32 13 37 12 31 -5z m-74 1 c0 -11 -19 -15 -25 -6 -3 5
1 10 9 10 9 0 16 -2 16 -4z m-12 -57 c24 0 25 -1 7 -8 -11 -5 -23 -7 -27 -4
-5 2 -8 -1 -8 -6 0 -6 5 -11 11 -11 6 0 8 -7 5 -16 -5 -13 -3 -14 6 -6 9 7 18
7 31 -3 10 -7 13 -15 8 -16 -8 -3 -8 -15 -2 -36 16 -57 -10 -107 -73 -140 -26
-14 -28 -14 -23 1 4 9 2 16 -4 16 -5 0 -29 9 -51 20 -23 11 -45 20 -50 20 -13
0 -9 -30 5 -34 52 -16 51 -15 22 -38 -17 -13 -46 -23 -79 -25 -46 -4 -49 -3
-33 10 14 11 15 16 5 20 -7 3 3 3 23 0 23 -3 39 -1 44 7 5 8 1 11 -11 8 -12
-2 -24 5 -31 20 -18 33 -16 44 5 41 42 -4 54 1 47 19 -4 9 -8 28 -9 42 -1 19
5 26 23 28 13 2 31 10 39 18 8 9 24 14 36 13 46 -3 50 0 31 21 -10 11 -28 20
-39 21 -15 0 -9 6 19 18 22 10 42 14 43 10 2 -5 16 -9 30 -10z m96 3 c3 -5 -1
-9 -9 -9 -8 0 -12 4 -9 9 3 4 7 8 9 8 2 0 6 -4 9 -8z m56 4 c0 -3 -4 -8 -10
-11 -5 -3 -10 -1 -10 4 0 6 5 11 10 11 6 0 10 -2 10 -4z m-720 -21 c0 -8 -4
-15 -10 -15 -5 0 -10 7 -10 15 0 8 5 15 10 15 6 0 10 -7 10 -15z m720 -16 c0
-6 6 -9 13 -6 7 2 18 -6 24 -20 11 -22 9 -28 -14 -49 -26 -24 -43 -31 -43 -16
0 4 6 14 13 21 10 11 8 11 -10 2 -27 -14 -50 -51 -31 -51 9 0 9 -3 0 -12 -20
-20 -40 -18 -35 3 3 11 0 19 -6 19 -8 0 -9 6 -3 18 5 9 7 23 5 30 -3 6 -1 12
4 12 5 0 17 14 26 30 17 29 57 42 57 19z m-30 -240 c-22 -153 -85 -336 -153
-443 l-31 -49 -35 41 c-61 69 -96 112 -105 132 -14 31 1 68 31 75 35 7 123 62
123 75 0 13 -33 13 -64 -1 -29 -14 -50 -2 -59 32 -5 18 -2 19 23 14 19 -4 29
-2 33 9 3 8 1 17 -6 20 -7 2 7 23 36 51 26 25 52 43 57 40 6 -3 10 -2 10 3 0
5 15 21 34 35 l34 26 15 -30 14 -31 23 47 c12 25 25 44 27 41 3 -3 0 -42 -7
-87z m-783 -95 c-3 -3 -12 -4 -19 -1 -8 3 -5 6 6 6 11 1 17 -2 13 -5z m-123
-50 c4 -10 1 -14 -6 -12 -15 5 -23 28 -10 28 5 0 13 -7 16 -16z m79 -28 c14
-14 22 -27 19 -30 -3 -3 1 -6 9 -6 12 -1 11 -3 -1 -13 -8 -7 -16 -19 -18 -27
-6 -29 -33 -60 -52 -60 -41 0 -57 86 -18 92 21 3 21 4 6 18 -15 14 -15 16 1
32 22 23 26 22 54 -6z m-118 -36 c3 -5 1 -10 -4 -10 -6 0 -11 5 -11 10 0 6 2
10 4 10 3 0 8 -4 11 -10z m-545 -15 c0 -8 4 -15 9 -15 5 0 7 -9 4 -20 -3 -12
-10 -19 -16 -17 -13 4 -28 53 -19 61 10 11 22 6 22 -9z m-130 -57 c42 -13 50
-30 26 -53 -12 -12 -17 -12 -38 3 -13 9 -32 22 -43 28 -10 6 -21 16 -23 22 -5
16 28 15 78 0z m1221 -5 c13 -16 12 -17 -3 -4 -17 13 -22 21 -14 21 2 0 10 -8
17 -17z m-811 -83 c1 8 8 -1 15 -20 7 -19 14 -29 14 -22 1 6 6 12 12 12 5 0 7
-4 4 -10 -3 -5 1 -10 9 -10 8 0 18 5 22 12 5 7 18 -2 40 -28 l33 -39 33 17
c18 10 52 24 75 31 l41 14 -9 -24 c-8 -22 -7 -24 11 -18 23 7 28 -10 5 -18
-19 -8 -35 -68 -22 -84 7 -9 5 -13 -7 -13 -18 0 -86 -61 -86 -77 0 -6 -10 -22
-21 -37 -12 -15 -19 -29 -17 -31 12 -13 337 -16 496 -5 101 7 185 10 188 8 10
-11 -171 -139 -264 -187 -179 -91 -342 -131 -542 -131 -200 0 -363 40 -542
132 -89 45 -265 169 -283 199 -10 15 324 5 435 -14 119 -20 346 -21 354 0 10
24 -4 61 -25 66 -11 3 -19 11 -18 19 4 20 -23 68 -38 68 -7 0 -17 10 -22 23
-5 12 -23 52 -40 88 -37 78 -39 94 -12 79 11 -5 33 -10 48 -10 16 0 34 -5 41
-12 9 -9 12 -9 12 0 0 7 7 12 15 12 9 0 19 8 22 17 6 15 7 15 14 -3 5 -13 8
-15 9 -4z m548 -137 c74 -26 94 -45 74 -65 -8 -8 -26 -3 -64 16 -29 15 -62 27
-73 28 -24 1 -113 -21 -138 -34 -15 -7 -15 -4 4 22 16 21 34 32 61 37 21 3 41
10 44 14 7 13 11 12 92 -18z m-248 -88 c0 -10 -61 -65 -71 -65 -6 0 4 15 23
34 31 32 48 42 48 31z m-315 -86 c10 -30 0 -33 -13 -4 -6 14 -7 25 -2 25 5 0
12 -9 15 -21z"/>
<path d="M2691 3807 c-11 -14 -6 -27 10 -27 5 0 13 9 19 20 8 16 8 20 -3 20
-8 0 -20 -6 -26 -13z"/>
<path d="M2773 3794 c-28 -28 -17 -48 12 -24 11 9 15 10 15 1 0 -7 5 -9 10 -6
13 8 13 42 0 50 -5 3 -22 -6 -37 -21z"/>
<path d="M2722 3722 c4 -21 38 -29 38 -9 0 8 -9 17 -21 20 -15 4 -19 1 -17
-11z"/>
<path d="M2710 3690 c0 -5 5 -10 11 -10 5 0 7 5 4 10 -3 6 -8 10 -11 10 -2 0
-4 -4 -4 -10z"/>
<path d="M3390 2491 c0 -12 29 -23 42 -15 6 4 5 10 -3 15 -18 11 -39 11 -39 0z"/>
<path d="M3478 2473 c7 -3 16 -2 19 1 4 3 -2 6 -13 5 -11 0 -14 -3 -6 -6z"/>
<path d="M3496 2428 c3 -5 10 -6 15 -3 13 9 11 12 -6 12 -8 0 -12 -4 -9 -9z"/>
<path d="M2520 1900 c0 -5 5 -10 10 -10 6 0 10 5 10 10 0 6 -4 10 -10 10 -5 0
-10 -4 -10 -10z"/>
<path d="M3320 3933 c-46 -70 -83 -133 -84 -140 -1 -7 41 -40 91 -73 l93 -60
16 25 c9 14 15 27 13 29 -2 2 -30 20 -61 40 -32 20 -58 41 -58 46 0 5 32 58
71 117 l70 107 -23 18 c-13 10 -28 18 -34 18 -7 0 -49 -57 -94 -127z"/>
<path d="M1525 4022 c-27 -15 -69 -40 -93 -56 -41 -26 -43 -29 -30 -49 8 -12
48 -75 88 -139 41 -65 77 -118 80 -118 15 0 166 108 182 130 33 45 34 93 4
155 -50 102 -137 131 -231 77z m115 -52 c29 -15 60 -74 60 -112 0 -36 -17 -58
-72 -93 l-27 -17 -56 86 c-30 47 -55 88 -55 91 0 2 17 16 37 30 39 26 81 32
113 15z"/>
<path d="M3643 3687 l-121 -111 86 -96 c47 -52 87 -97 89 -99 4 -6 43 30 43
39 0 4 -28 37 -61 74 -34 37 -60 68 -58 69 2 1 16 13 31 26 l28 24 56 -62 c57
-62 57 -62 77 -42 20 19 20 20 -36 83 l-56 63 27 22 27 23 63 -67 63 -66 21
21 21 21 -38 43 c-54 61 -136 148 -138 147 -1 0 -57 -50 -124 -112z"/>
<path d="M1122 3685 c-45 -51 -82 -97 -82 -102 0 -9 239 -219 246 -216 9 5
164 184 164 190 0 4 -8 15 -17 26 -17 18 -20 17 -83 -53 l-65 -71 -27 28 -28
29 56 64 56 63 -23 18 c-25 18 -27 17 -118 -91 -16 -19 -17 -19 -44 6 l-29 24
63 71 c34 38 60 71 58 72 -2 1 -13 10 -25 19 -20 17 -22 15 -102 -77z"/>
<path d="M3927 3332 c-159 -76 -153 -64 -89 -187 45 -85 85 -115 152 -115 95
0 180 72 180 154 0 45 -75 217 -94 215 -6 0 -73 -31 -149 -67z m157 -65 c34
-89 13 -132 -75 -159 -54 -16 -82 0 -114 61 l-25 50 93 45 c50 24 95 45 98 45
4 1 14 -18 23 -42z"/>
<path d="M891 3334 c-18 -13 -111 -188 -111 -209 0 -1 6 -5 13 -8 6 -3 74 -35
149 -71 l138 -65 15 30 c9 16 14 33 11 37 -3 5 -27 19 -55 32 -28 13 -51 28
-51 34 0 19 39 76 56 83 14 5 35 0 101 -24 9 -4 43 43 43 60 0 3 -27 15 -60
27 -56 21 -61 21 -85 6 -24 -16 -25 -16 -25 9 0 61 -85 96 -139 59z m83 -80
c9 -8 16 -18 16 -20 0 -9 -42 -104 -46 -104 -12 0 -74 35 -74 42 0 11 29 68
42 86 14 17 43 15 62 -4z"/>
<path d="M2717 3199 c7 -7 15 -10 18 -7 3 3 -2 9 -12 12 -14 6 -15 5 -6 -5z"/>
<path d="M2480 2946 c0 -2 9 -6 20 -9 11 -3 20 -1 20 4 0 5 -9 9 -20 9 -11 0
-20 -2 -20 -4z"/>
<path d="M870 2915 c0 -33 -42 -75 -75 -75 -14 0 -25 -4 -25 -10 0 -5 10 -10
23 -10 35 0 66 -27 73 -65 3 -19 10 -35 14 -35 4 0 11 16 14 35 7 38 38 65 73
65 13 0 23 5 23 10 0 6 -11 10 -25 10 -33 0 -75 42 -75 75 0 14 -4 25 -10 25
-5 0 -10 -11 -10 -25z"/>
<path d="M4106 2906 c-7 -39 -38 -66 -73 -66 -13 0 -23 -4 -23 -10 0 -5 10
-10 23 -10 30 0 65 -33 73 -68 3 -15 7 -31 9 -37 1 -5 7 9 14 31 13 48 29 64
74 74 27 6 29 8 12 14 -50 17 -71 34 -80 63 -15 46 -22 48 -29 9z"/>
<path d="M2114 2902 c-9 -5 -8 -11 2 -20 8 -7 14 -11 14 -8 0 2 3 11 6 20 6
17 -3 21 -22 8z"/>
<path d="M2060 2872 c-22 -23 -25 -36 -25 -95 0 -43 -4 -67 -11 -67 -7 0 -25
-7 -40 -15 -20 -10 -23 -15 -11 -15 11 0 17 -8 17 -22 0 -12 -3 -18 -7 -15 -3
4 -12 2 -19 -4 -10 -8 -18 -5 -31 10 -21 25 -33 27 -33 6 0 -17 105 -69 120
-60 6 3 10 12 10 19 0 8 7 19 15 26 8 7 15 21 15 31 0 17 11 24 33 20 4 0 7 6
7 14 0 8 5 15 11 15 8 0 9 14 5 44 -4 27 -3 47 4 51 12 8 13 45 1 45 -5 0 -12
-6 -14 -12 -3 -7 -6 -4 -6 7 -2 40 -15 45 -41 17z"/>
<path d="M2383 2893 c9 -2 23 -2 30 0 6 3 -1 5 -18 5 -16 0 -22 -2 -12 -5z"/>
<path d="M1932 2762 c-13 -22 -9 -62 5 -49 3 4 12 2 20 -4 15 -13 18 2 4 17
-5 5 -11 20 -13 34 l-3 25 -13 -23z"/>
<path d="M1980 2743 c0 -7 4 -13 9 -13 5 0 11 6 14 13 3 8 -1 14 -9 14 -8 0
-14 -6 -14 -14z"/>
<path d="M2325 2730 c3 -5 8 -10 11 -10 2 0 4 5 4 10 0 6 -5 10 -11 10 -5 0
-7 -4 -4 -10z"/>
<path d="M2260 2700 c0 -7 -7 -10 -15 -6 -11 4 -15 -2 -15 -21 0 -25 1 -26 14
-8 8 11 19 16 30 12 13 -5 17 -2 14 10 -4 19 -28 30 -28 13z"/>
<path d="M1911 2581 c-17 -11 -5 -70 15 -78 8 -3 14 -13 13 -22 -2 -24 12 -81
21 -81 4 0 11 7 14 16 4 11 13 14 30 10 20 -5 24 -2 23 13 -1 17 -28 35 -49
32 -7 -1 -16 22 -23 59 -2 12 -9 28 -15 34 -5 7 -7 16 -3 19 9 10 -10 8 -26
-2z"/>
<path d="M876 2565 c-20 -56 -33 -71 -80 -86 l-48 -16 40 -7 c46 -7 82 -44 82
-83 0 -14 4 -21 10 -18 6 3 10 14 10 24 0 34 39 71 83 78 l41 6 -46 14 c-52
15 -68 30 -78 76 -6 27 -8 29 -14 12z"/>
<path d="M4110 2558 c0 -38 -28 -67 -77 -81 l-47 -14 40 -6 c49 -8 71 -30 82
-83 l9 -39 11 39 c15 53 38 75 86 83 l40 6 -47 14 c-46 13 -77 43 -77 75 0 9
-4 20 -10 23 -6 3 -10 -4 -10 -17z"/>
<path d="M2085 2430 c4 -6 11 -8 16 -5 14 9 11 15 -7 15 -8 0 -12 -5 -9 -10z"/>
<path d="M2013 2396 c-27 -13 -31 -36 -7 -36 16 0 43 27 44 43 0 9 -9 7 -37
-7z"/>
<path d="M1596 2348 c-18 -27 -46 -129 -39 -141 3 -5 9 -5 14 0 10 10 50 155
44 161 -2 2 -10 -7 -19 -20z"/>
<path d="M1435 2213 c-14 -33 -33 -188 -24 -198 17 -18 27 10 38 100 6 50 11
96 11 103 0 18 -17 15 -25 -5z"/>
<path d="M877 2214 c-4 -4 -7 -15 -7 -24 0 -33 -40 -70 -83 -77 l-41 -6 47
-14 c49 -14 77 -43 77 -80 0 -13 5 -23 10 -23 6 0 10 10 10 23 0 37 28 66 77
80 l47 14 -40 6 c-47 8 -74 33 -83 77 -3 18 -9 28 -14 24z"/>
<path d="M4110 2197 c0 -40 -36 -76 -83 -84 l-41 -6 46 -14 c54 -15 65 -27 76
-79 l9 -39 12 41 c13 48 24 59 77 78 28 10 33 15 17 15 -50 2 -93 41 -93 86 0
8 -4 17 -10 20 -6 3 -10 -4 -10 -18z"/>
<path d="M1120 2135 c0 -8 5 -15 10 -15 6 0 10 7 10 15 0 8 -4 15 -10 15 -5 0
-10 -7 -10 -15z"/>
<path d="M3905 1969 c-9 -16 -14 -33 -11 -37 3 -5 27 -19 55 -32 28 -13 51
-28 51 -34 0 -19 -39 -76 -56 -83 -14 -5 -35 0 -101 24 -9 4 -43 -43 -43 -60
0 -3 27 -15 60 -27 56 -21 61 -21 85 -6 24 16 25 16 25 -9 0 -61 85 -96 139
-59 18 13 111 188 111 209 0 1 -6 5 -12 8 -7 3 -75 35 -150 71 l-138 65 -15
-30z m224 -154 c6 -7 -30 -83 -45 -96 -18 -14 -60 -4 -68 17 -3 8 4 37 15 64
l21 49 36 -15 c20 -8 38 -17 41 -19z"/>
<path d="M958 1946 c-55 -20 -86 -43 -108 -79 -31 -50 -25 -102 21 -198 22
-46 43 -86 45 -88 2 -2 71 29 153 69 l150 73 -44 86 c-48 96 -76 127 -126 141
-42 12 -45 12 -91 -4z m103 -76 c10 -6 30 -32 43 -59 l24 -47 -84 -42 c-46
-23 -90 -42 -97 -42 -18 0 -47 64 -47 104 0 63 101 117 161 86z"/>
<path d="M1390 1915 c0 -27 -5 -57 -10 -65 -7 -11 -10 -8 -10 16 0 46 -43 77
-53 37 -3 -15 -6 -13 -15 8 -9 24 -14 26 -44 20 -48 -10 -50 -47 -6 -86 47
-42 121 -93 152 -105 25 -9 26 -8 26 23 -1 50 -19 167 -30 186 -7 12 -10 3
-10 -34z"/>
<path d="M1611 1804 c0 -11 3 -14 6 -6 3 7 2 16 -1 19 -3 4 -6 -2 -5 -13z"/>
<path d="M3627 1520 l-86 -98 23 -21 23 -21 59 69 c32 38 61 70 64 70 3 0 18
-11 33 -25 l29 -25 -56 -63 -55 -63 20 -19 c21 -19 22 -19 78 44 l56 62 30
-24 29 -23 -62 -69 -62 -68 22 -23 c12 -13 22 -22 23 -20 1 1 39 44 84 95 44
51 81 96 81 101 0 7 -191 179 -230 208 -14 10 -29 -3 -103 -87z"/>
<path d="M1275 1580 c-17 -19 -16 -21 43 -88 l61 -69 -28 -27 -28 -27 -58 60
c-48 51 -60 59 -76 50 -28 -15 -24 -27 31 -85 28 -29 50 -57 50 -62 0 -5 -11
-19 -24 -31 l-23 -22 -60 67 c-44 48 -65 65 -77 61 -37 -15 -28 -37 54 -127
46 -49 87 -90 91 -90 9 0 232 200 238 214 3 8 -159 196 -170 196 -3 0 -14 -9
-24 -20z"/>
<path d="M1564 1295 c-9 -14 -15 -27 -13 -29 2 -2 30 -20 62 -40 31 -20 57
-40 57 -45 0 -4 -32 -57 -70 -117 l-71 -108 23 -18 c13 -10 28 -18 34 -18 13
0 176 245 178 267 1 7 -41 40 -91 73 l-93 60 -16 -25z"/>
<path d="M3345 1268 c-89 -60 -113 -87 -122 -141 -8 -50 35 -138 85 -172 64
-44 117 -33 248 51 52 34 55 37 41 57 -7 12 -47 75 -87 140 -41 64 -77 117
-80 117 -3 0 -42 -24 -85 -52z m110 -123 c30 -47 55 -87 55 -90 0 -2 -17 -16
-37 -30 -63 -42 -115 -32 -153 30 -34 55 -25 102 28 142 24 18 46 33 48 33 2
0 29 -38 59 -85z"/>
<path d="M1897 1028 c2 -51 6 -130 9 -175 l6 -83 40 -10 c21 -6 46 -14 53 -16
9 -4 50 42 120 137 90 122 103 145 88 151 -36 14 -61 8 -80 -18 l-19 -26 -72
23 c-70 22 -72 24 -72 56 0 34 -21 53 -57 53 -18 0 -19 -8 -16 -92z m126 -74
c26 -9 47 -18 47 -20 0 -2 -20 -32 -45 -66 l-45 -62 0 44 c0 25 -3 62 -6 83
-4 20 -5 37 -2 37 2 0 25 -7 51 -16z"/>
<path d="M2925 1073 c-44 -14 -81 -26 -83 -28 -1 -1 2 -14 7 -28 9 -23 15 -26
40 -21 29 6 29 6 56 -82 14 -49 28 -95 30 -102 3 -8 -7 -15 -25 -19 -26 -5
-29 -9 -23 -32 3 -14 7 -28 9 -30 4 -4 194 50 194 55 0 1 -4 14 -10 28 -8 22
-14 25 -39 20 l-29 -6 -31 98 c-31 102 -30 113 12 114 20 0 20 1 7 34 -11 31
-13 31 -115 -1z"/>
<path d="M2433 1001 c-45 -21 -73 -62 -73 -106 0 -24 3 -26 38 -23 29 2 38 8
40 24 5 36 39 59 89 59 62 0 93 -35 93 -105 0 -83 -31 -120 -99 -120 -35 0
-81 35 -81 61 0 16 -7 19 -41 19 -41 0 -41 0 -35 -32 16 -79 71 -113 173 -106
70 4 103 23 141 79 20 29 23 44 20 101 -4 72 -20 104 -71 142 -39 29 -139 33
-194 7z"/>
</g>
</svg>
