<?xml version="1.0" standalone="no"?>
<!DOCTYPE svg PUBLIC "-//W3C//DTD SVG 20010904//EN"
 "http://www.w3.org/TR/2001/REC-SVG-20010904/DTD/svg10.dtd">
<svg version="1.0" xmlns="http://www.w3.org/2000/svg"
 width="100%" height="100%" viewBox="0 0 200.000000 200.000000"
 preserveAspectRatio="xMidYMid meet">

<g transform="translate(0.000000,200.000000) scale(0.100000,-0.100000)"
fill="currentColor" stroke="none">
<path d="M842 1985 c-376 -68 -668 -316 -788 -668 -177 -517 107 -1085 631
-1264 398 -136 853 4 1105 339 262 347 279 800 43 1156 -218 329 -617 505
-991 437z m270 -193 l37 -7 -87 -65 c-259 -195 -399 -532 -353 -848 34 -230
165 -450 353 -592 l87 -65 -37 -8 c-69 -16 -249 -1 -342 28 -260 82 -442 261
-530 522 -148 443 133 927 596 1027 73 15 214 20 276 8z m378 -159 c188 -141
310 -390 310 -635 0 -139 -53 -317 -130 -434 -45 -69 -146 -175 -207 -217
l-41 -28 -78 30 c-314 121 -495 452 -431 788 35 181 162 364 323 463 32 20
169 79 186 80 3 0 34 -21 68 -47z"/>
</g>
</svg>
