<?xml version="1.0" standalone="no"?>
<!DOCTYPE svg PUBLIC "-//W3C//DTD SVG 20010904//EN"
 "http://www.w3.org/TR/2001/REC-SVG-20010904/DTD/svg10.dtd">
<svg version="1.0" xmlns="http://www.w3.org/2000/svg"
 width="100%" height="100%" viewBox="0 0 512.000000 512.000000"
 preserveAspectRatio="xMidYMid meet">

<g transform="translate(0.000000,512.000000) scale(0.100000,-0.100000)"
fill="#000000" stroke="none">
<path d="M2393 4779 c-202 -19 -389 -71 -543 -150 -158 -81 -257 -176 -317
-305 -25 -53 -28 -70 -28 -170 0 -106 1 -113 35 -180 45 -89 176 -222 278
-282 215 -126 465 -179 786 -169 376 12 659 107 847 285 228 215 237 455 25
667 -232 232 -641 347 -1083 304z"/>
<path d="M1490 3638 c1 -217 34 -318 140 -431 56 -60 197 -167 221 -167 5 0 9
93 9 220 l0 220 -77 39 c-86 43 -175 106 -240 170 -23 22 -45 41 -48 41 -3 0
-5 -42 -5 -92z"/>
<path d="M3570 3684 c-51 -52 -200 -154 -266 -181 l-44 -18 0 -222 c0 -123 4
-223 8 -223 18 0 137 83 189 133 131 123 162 199 170 415 4 86 2 142 -3 142
-6 0 -30 -21 -54 -46z"/>
<path d="M2022 3193 l3 -228 80 -23 c81 -23 212 -46 318 -55 l57 -6 0 235 0
234 -40 0 c-61 0 -251 28 -336 50 -43 11 -79 20 -81 20 -2 0 -2 -102 -1 -227z"/>
<path d="M2975 3394 c-55 -13 -153 -29 -217 -36 l-118 -12 0 -232 0 -233 58 5
c97 9 234 33 317 56 l80 23 3 228 c2 179 0 227 -10 226 -7 -1 -58 -12 -113
-25z"/>
<path d="M925 2895 c-280 -163 -517 -303 -526 -311 -9 -8 -29 -38 -45 -67 -56
-101 -31 -239 56 -308 19 -15 474 -282 1010 -593 787 -456 988 -568 1040 -582
78 -20 172 -15 245 14 58 22 1953 1120 2005 1161 87 70 112 207 56 309 -16 28
-43 63 -60 75 -25 20 -926 545 -1004 586 -21 11 -25 9 -44 -16 -35 -47 -142
-147 -192 -180 l-46 -31 417 -241 c230 -133 426 -251 436 -263 9 -11 17 -33
17 -48 0 -15 -8 -37 -17 -49 -25 -29 -1687 -991 -1712 -991 -17 0 -1513 859
-1683 967 -42 25 -56 61 -42 102 9 26 65 60 677 414 l187 109 -37 25 c-66 44
-141 112 -180 163 -21 27 -40 49 -43 50 -3 0 -235 -133 -515 -295z"/>
<path d="M1966 2822 c-10 -10 -6 -266 4 -304 15 -54 63 -96 167 -145 144 -68
262 -95 418 -96 190 -2 347 39 497 130 94 58 102 77 106 261 3 104 0 152 -7
152 -6 0 -57 -13 -114 -29 -118 -33 -259 -57 -397 -66 -165 -12 -438 24 -599
79 -39 13 -72 21 -75 18z"/>
<path d="M1440 2617 c-190 -111 -351 -206 -358 -210 -17 -11 1442 -861 1478
-862 15 0 266 140 625 349 330 192 660 384 733 426 97 57 129 80 120 87 -18
14 -707 413 -713 413 -3 0 -5 -62 -5 -138 0 -255 -47 -345 -230 -437 -188 -94
-330 -129 -530 -129 -188 0 -319 31 -510 120 -115 54 -177 111 -216 198 -26
57 -28 72 -32 224 -2 89 -7 162 -11 161 -3 0 -161 -91 -351 -202z"/>
<path d="M320 1928 c0 -79 5 -163 11 -187 16 -70 60 -151 110 -201 33 -33 305
-200 991 -608 520 -309 964 -569 987 -577 108 -38 233 -28 341 29 36 18 470
274 965 569 964 572 977 581 1029 690 38 82 47 137 44 288 l-3 137 -990 -576
c-603 -350 -1017 -585 -1060 -600 -57 -21 -89 -26 -175 -26 -115 -1 -173 11
-261 55 -31 16 -252 142 -490 280 -239 139 -670 389 -959 557 -289 168 -528
307 -532 309 -5 2 -8 -60 -8 -139z"/>
</g>
</svg>
